<?xml version="1.0" encoding="utf-8"?>
<!-- Generator: Adobe Illustrator 18.1.1, SVG Export Plug-In . SVG Version: 6.00 Build 0)  -->
<svg version="1.1" id="Layer_1" xmlns="http://www.w3.org/2000/svg" xmlns:xlink="http://www.w3.org/1999/xlink" x="0px" y="0px"
	 viewBox="0 0 220 219" enable-background="new 0 0 220 219" xml:space="preserve">
<g>
	<path fill="#FFFFFF" d="M210.8,6c3.4,0,3.2,2.1,3.2,2.9v199.2c0,2.5-1.7,4.9-3.4,4.9h-1.7h-20h-30.2H158v-72h19.9
		c3.1,0,5.7-2.3,6-5.4l3.2-31c0.2-1.7-0.4-3.4-1.5-4.6s-2.8-2-4.5-2H158V84.9c0-1.1,0-1.9,2.9-1.9H180c3.3,0,6-2.7,6-6V46.2
		c0-3.3-2.7-6-6-6l-27.1-0.1c-19.1,0-29.4,8.4-34.6,15.5c-7.3,9.9-8.3,21.4-8.3,27.4V98H98c-3.3,0-6,2.7-6,6v31c0,3.3,2.7,6,6,6h12
		v72h-7.9H57.6h-20H11.4c-2.3,0-5.4-2.9-5.4-4.9V8.9C6,7.5,8.7,6,11.4,6H211 M210.6,0H11.4C5.9,0,0,3.4,0,8.9v199.2
		c0,5.5,5.9,10.9,11.4,10.9h26.2c5.5,0,14.5,0,20,0h44.5c3.9,0,8.9,0,13.9,0c0-13,0-51,0-84H98v-31h18V83.1
		c0-14.4,6.8-36.9,36.9-36.9l27.1,0.1V77c0,0-15.9,0-19.1,0c-3.2,0-8.9,1.1-8.9,7.9V104h29.1l-3.2,31H152c0,33,0,71,0,84
		c2,0,5.1,0,6.7,0h30.2c5.5,0,14.5,0,20,0h1.7c5.5,0,9.4-5.4,9.4-10.9V8.9C220,3.4,216.1,0,210.6,0L210.6,0z"/>
</g>
</svg>
