<svg xmlns="http://www.w3.org/2000/svg" viewBox="0 0 220 219" enable-background="new 0 0 220 219"><path fill="#fff" d="M210.8 6c3.4 0 3.2 2.1 3.2 2.9v199.2c0 2.5-1.7 4.9-3.4 4.9h-52.6v-72h19.9c3.1 0 5.7-2.3 6-5.4l3.2-31c.2-1.7-.4-3.4-1.5-4.6s-2.8-2-4.5-2h-23.1v-13.1c0-1.1 0-1.9 2.9-1.9h19.1c3.3 0 6-2.7 6-6v-30.8c0-3.3-2.7-6-6-6l-27.1-.1c-19.1 0-29.4 8.4-34.6 15.5-7.3 9.9-8.3 21.4-8.3 27.4v15h-12c-3.3 0-6 2.7-6 6v31c0 3.3 2.7 6 6 6h12v72h-98.60000000000001c-2.3 0-5.4-2.9-5.4-4.9v-199.2c0-1.4 2.7-2.9 5.4-2.9h199.6m-.4-6h-199.2c-5.5 0-11.4 3.4-11.4 8.9v199.2c0 5.5 5.9 10.9 11.4 10.9h104.60000000000001v-84h-18v-31h18v-20.9c0-14.4 6.8-36.9 36.9-36.9l27.1.1v30.7h-19.1c-3.2 0-8.9 1.1-8.9 7.9v19.1h29.1l-3.2 31h-25.9v84h58.6c5.5 0 9.4-5.4 9.4-10.9v-199.2c0-5.5-3.9-8.9-9.4-8.9z"/></svg>