<svg xmlns="http://www.w3.org/2000/svg" viewBox="840 0 1080 1080" enable-background="new 840 0 1080 1080"><path fill="#fff" d="M1870.7 0h-981.4c-27.1 0-49.3 22.2-49.3 49.3v981.4c0 27.1 22.2 49.3 49.3 49.3h981.4c27.1 0 49.3-22.2 49.3-49.3v-981.4c0-27.1-22.2-49.3-49.3-49.3zm20.3 1031.3c0 10.9-8.8 19.7-19.7 19.7h-981.6c-10.9 0-19.7-8.8-19.7-19.7v-981.6c0-10.9 8.8-19.7 19.7-19.7h981.5c10.9 0 19.7 8.8 19.7 19.7v981.6h.1zM1731.8 871.1h-700.2c-38.4 0-69.8-31.3-69.8-69.8v-522.6c0-38.4 31.3-69.8 69.8-69.8h700c38.4 0 69.8 31.3 69.8 69.8v522.5c.1 38.6-31.2 69.9-69.6 69.9zm-700.2-624.5c-17.6 0-32.1 14.4-32.1 32.1v522.5c0 17.6 14.4 32.1 32.1 32.1h700c17.6 0 32.1-14.4 32.1-32.1v-522.5c0-17.6-14.4-32.1-32.1-32.1h-700zM1393.4 630.9c-6.1 4.7-16 4.8-22.1.1l-401.5-306.6c-6.1-4.7-7.6-13.7-3.2-20.1l8.6-12.6c4.3-6.4 12.9-7.7 19-3l376.6 290.2c6.1 4.7 16 4.6 22.1-.1l370.5-291.5c6-4.8 14.7-3.5 19.2 2.7l8.8 12.3c4.5 6.3 3.2 15.2-2.9 20l-395.1 308.6z"/></svg>