<?xml version="1.0" encoding="utf-8"?>
<!-- Generator: Adobe Illustrator 18.1.1, SVG Export Plug-In . SVG Version: 6.00 Build 0)  -->
<svg version="1.1" id="Layer_1" xmlns="http://www.w3.org/2000/svg" xmlns:xlink="http://www.w3.org/1999/xlink" x="0px" y="0px"
	 viewBox="420 0 1080 1080" enable-background="new 420 0 1080 1080" xml:space="preserve">
<path fill="#FFFFFF" d="M1450.7,0H469.3C442.2,0,420,22.2,420,49.3v981.4c0,27.1,22.2,49.3,49.3,49.3h981.4
	c27.1,0,49.3-22.2,49.3-49.3V49.3C1500,22.2,1477.8,0,1450.7,0z M1471,1031.3c0,10.9-8.8,19.7-19.7,19.7H469.7
	c-10.9,0-19.7-8.8-19.7-19.7V49.7c0-10.9,8.8-19.7,19.7-19.7h981.5c10.9,0,19.7,8.8,19.7,19.7v981.6H1471z"/>
<path fill="#FFFFFF" d="M1247.8,762.2H672.2c-31.6,0-57.4-25.7-57.4-57.4V375.2c0-31.6,25.7-57.4,57.4-57.4h575.4
	c31.6,0,57.4,25.7,57.4,57.4v329.5C1305.1,736.4,1279.4,762.2,1247.8,762.2z M672.2,348.8c-14.5,0-26.4,11.8-26.4,26.4v329.5
	c0,14.5,11.8,26.4,26.4,26.4h575.4c14.5,0,26.4-11.8,26.4-26.4V375.2c0-14.5-11.8-26.4-26.4-26.4L672.2,348.8L672.2,348.8z"/>
<polygon fill="#FFFFFF" points="960.2,583.3 660.5,349.6 677.7,323.8 959.7,545.7 1237.3,322.7 1255.1,348 "/>
<rect x="790.9" y="490.1" transform="matrix(-0.7441 -0.6681 0.6681 -0.7441 980.665 1650.1147)" fill="#FFFFFF" width="31" height="294.2"/>
<rect x="966.6" y="624.2" transform="matrix(-0.7228 -0.691 0.691 -0.7228 1489.942 1876.9514)" fill="#FFFFFF" width="309.6" height="31"/>
</svg>
