<svg xmlns="http://www.w3.org/2000/svg" viewBox="0 0 219 219" enable-background="new 0 0 219 219"><path fill="#fff" d="M209 6c2.2 0 4 1.8 4 4v199c0 2.2-1.8 4-4 4h-199c-2.2 0-4-1.8-4-4v-199c0-2.2 1.8-4 4-4h199m-106.3 71.6c-21.5-2.9-41.4-13.9-55.2-30.9-1.1-1.4-2.9-2.2-4.7-2.2h-.5c-2 .2-3.7 1.3-4.7 3-3.5 6-5.4 12.7-5.4 19.2 0 6 1.3 11.8 3.8 16.9-.8.1-1.6.4-2.3.8-1.8 1.1-2.8 3-2.8 5.1v.4c0 8.9 3.3 17.6 9.2 24.5 1.4 1.6 2.9 3.1 4.5 4.4-1 1.5-1.2 3.4-.7 5.1 3.3 10.4 10.9 18.7 20.4 23.1-7.6 3.5-16 5.3-24.6 5.3-2.5 0-4.8-.1-7-.4h-.7c-2.5 0-4.8 1.6-5.6 4-.9 2.6.1 5.6 2.4 7.1 15.8 10.1 34 15.4 52.7 15.4 15.1 0 29.2-3 41.9-8.9 11.7-5.4 22.1-13.2 30.8-23.1 16-18.1 25.2-42.2 25.2-65.9v-1.3c5.8-4.6 10.9-10.1 15-16.3 1.5-2.2 1.3-5.2-.4-7.2-1.2-1.4-2.9-2.1-4.6-2.1h-.6c.8-1.6 1.4-3.3 2-5 .8-2.4 0-5-2-6.5-1.1-.9-2.4-1.3-3.7-1.3-1.1 0-2.1.3-3.1.8-4.9 2.9-10.1 5.1-15.6 6.4-7-6.2-16-9.6-25.4-9.6-21.1 0-38.3 17.2-38.3 38.3v.9m106.3-77.6h-199c-5.5 0-10 4.5-10 10v199c0 5.5 4.5 10 10 10h199c5.5 0 10-4.5 10-10v-199c0-5.5-4.5-10-10-10zm-99.5 84.2c-.5-2.4-.8-4.8-.8-7.4 0-17.8 14.5-32.3 32.3-32.3 9.3 0 17.7 3.9 23.6 10.2 7.3-1.4 14.3-4.1 20.5-7.8-2.4 7.5-7.5 13.9-14.2 17.8 6.5-.8 12.8-2.5 18.5-5.1-4.3 6.5-9.8 12.2-16.1 16.7.1 1.4.1 2.8.1 4.2 0 42.7-32.5 91.8-91.8 91.8-18.2 0-35.2-5.3-49.5-14.5 2.5.3 5.1.4 7.7.4 15.1 0 29-5.1 40.1-13.8-14.1-.2-26-9.6-30.1-22.4 2 .4 4 .6 6.1.6 2.9 0 5.1-.4 7.8-1.1-14.8-3-26.6-16-26.6-31.7v-.4c5 2.4 10 3.9 15.3 4-8.7-5.8-14-15.7-14-26.9 0-5.9 1.8-11.4 4.5-16.2 15.9 19.7 39.8 32.6 66.6 33.9z"/></svg>