<?xml version="1.0" encoding="utf-8"?>
<!-- Generator: Adobe Illustrator 18.1.1, SVG Export Plug-In . SVG Version: 6.00 Build 0)  -->
<svg version="1.1" id="Layer_1" xmlns="http://www.w3.org/2000/svg" xmlns:xlink="http://www.w3.org/1999/xlink" x="0px" y="0px"
	 viewBox="0 0 219 219" enable-background="new 0 0 219 219" xml:space="preserve">
<g>
	<path fill="#FFFFFF" d="M209,6c2.2,0,4,1.8,4,4v199c0,2.2-1.8,4-4,4H10c-2.2,0-4-1.8-4-4V10c0-2.2,1.8-4,4-4H209 M102.7,77.6
		c-21.5-2.9-41.4-13.9-55.2-30.9c-1.1-1.4-2.9-2.2-4.7-2.2c-0.2,0-0.3,0-0.5,0c-2,0.2-3.7,1.3-4.7,3c-3.5,6-5.4,12.7-5.4,19.2
		c0,6,1.3,11.8,3.8,16.9c-0.8,0.1-1.6,0.4-2.3,0.8c-1.8,1.1-2.8,3-2.8,5.1v0.4c0,8.9,3.3,17.6,9.2,24.5c1.4,1.6,2.9,3.1,4.5,4.4
		c-1,1.5-1.2,3.4-0.7,5.1c3.3,10.4,10.9,18.7,20.4,23.1c-7.6,3.5-16,5.3-24.6,5.3c-2.5,0-4.8-0.1-7-0.4c-0.2,0-0.5,0-0.7,0
		c-2.5,0-4.8,1.6-5.6,4c-0.9,2.6,0.1,5.6,2.4,7.1c15.8,10.1,34,15.4,52.7,15.4c15.1,0,29.2-3,41.9-8.9c11.7-5.4,22.1-13.2,30.8-23.1
		c16-18.1,25.2-42.2,25.2-65.9c0-0.4,0-0.8,0-1.3c5.8-4.6,10.9-10.1,15-16.3c1.5-2.2,1.3-5.2-0.4-7.2c-1.2-1.4-2.9-2.1-4.6-2.1
		c-0.2,0-0.4,0-0.6,0c0.8-1.6,1.4-3.3,2-5c0.8-2.4,0-5-2-6.5c-1.1-0.9-2.4-1.3-3.7-1.3c-1.1,0-2.1,0.3-3.1,0.8
		c-4.9,2.9-10.1,5.1-15.6,6.4c-7-6.2-16-9.6-25.4-9.6c-21.1,0-38.3,17.2-38.3,38.3C102.7,77.1,102.7,77.3,102.7,77.6 M209,0H10
		C4.5,0,0,4.5,0,10v199c0,5.5,4.5,10,10,10h199c5.5,0,10-4.5,10-10V10C219,4.5,214.5,0,209,0L209,0z M109.5,84.2
		c-0.5-2.4-0.8-4.8-0.8-7.4c0-17.8,14.5-32.3,32.3-32.3c9.3,0,17.7,3.9,23.6,10.2c7.3-1.4,14.3-4.1,20.5-7.8
		c-2.4,7.5-7.5,13.9-14.2,17.8c6.5-0.8,12.8-2.5,18.5-5.1c-4.3,6.5-9.8,12.2-16.1,16.7c0.1,1.4,0.1,2.8,0.1,4.2
		c0,42.7-32.5,91.8-91.8,91.8c-18.2,0-35.2-5.3-49.5-14.5c2.5,0.3,5.1,0.4,7.7,0.4c15.1,0,29-5.1,40.1-13.8
		c-14.1-0.2-26-9.6-30.1-22.4c2,0.4,4,0.6,6.1,0.6c2.9,0,5.1-0.4,7.8-1.1c-14.8-3-26.6-16-26.6-31.7c0-0.1,0-0.3,0-0.4
		c5,2.4,10,3.9,15.3,4c-8.7-5.8-14-15.7-14-26.9c0-5.9,1.8-11.4,4.5-16.2C58.8,70,82.7,82.9,109.5,84.2L109.5,84.2z"/>
</g>
</svg>
