<?xml version="1.0" encoding="utf-8"?>
<!-- Generator: Adobe Illustrator 18.1.1, SVG Export Plug-In . SVG Version: 6.00 Build 0)  -->
<svg version="1.1" id="Layer_1" xmlns="http://www.w3.org/2000/svg" xmlns:xlink="http://www.w3.org/1999/xlink" x="0px" y="0px"
	 viewBox="0 0 1920 1080" enable-background="new 0 0 1920 1080" xml:space="preserve">
<g>
	<path fill="#FFFFFF" d="M1820.4,0H99.6C72.5,0,50.3,22.2,50.3,49.3v981.4c0,27.1,22.2,49.3,49.3,49.3h1720.8
		c27.1,0,49.3-22.2,49.3-49.3V49.3C1869.7,22.2,1847.5,0,1820.4,0L1820.4,0z M1840.7,1031.3c0,10.9-8.8,19.7-19.7,19.7H100
		c-10.9,0-19.7-8.8-19.7-19.7V49.7C80.3,38.8,89.1,30,100,30h1720.9c10.9,0,19.7,8.8,19.7,19.7L1840.7,1031.3L1840.7,1031.3z"/>
	<path fill="#FFFFFF" d="M723.8,258.9l213.5,123.3l22,12.7l37.8,21.8L1210.7,540L997.2,663.3L947.5,692l-10,5.8L724,821.1V574.5v-69
		V258.9 M680.4,168.2c-9.8,0-16.6,7.8-16.6,21.3v316c0,19,0,50,0,69v316c0,13.5,6.8,21.3,16.6,21.3c4,0,8.5-1.3,13.3-4l273.7-158
		c16.4-9.5,43.3-25,59.7-34.5l273.7-158c16.4-9.5,16.4-25,0-34.5l-273.7-158c-16.4-9.5-43.3-25-59.7-34.5l-273.7-158
		C689,169.5,684.4,168.2,680.4,168.2L680.4,168.2z"/>
</g>
</svg>
